<svg _ngcontent-c0="" fill="none" height="50" itemprop="logo" viewBox="0 0 304 50" width="304" xmlns="http://www.w3.org/2000/svg"><rect _ngcontent-c0="" fill="black" fill-opacity="0" height="49.9998" width="304"></rect><path _ngcontent-c0="" d="M5.92504 16.8956C9.19734 16.8956 11.8501 14.2379 11.8501 10.9595C11.8501 7.68111 9.19734 5.02344 5.92504 5.02344C2.65273 5.02344 0 7.68111 0 10.9595C0 14.2379 2.65273 16.8956 5.92504 16.8956Z" fill="#57C9E8"></path><path _ngcontent-c0="" d="M5.92504 47.9449C9.19734 47.9449 11.8501 45.2872 11.8501 42.0088C11.8501 38.7304 9.19734 36.0728 5.92504 36.0728C2.65273 36.0728 0 38.7304 0 42.0088C0 45.2872 2.65273 47.9449 5.92504 47.9449Z" fill="#57C9E8"></path><path _ngcontent-c0="" d="M5.92504 32.42C9.19734 32.42 11.8501 29.7623 11.8501 26.4839C11.8501 23.2055 9.19734 20.5479 5.92504 20.5479C2.65273 20.5479 0 23.2055 0 26.4839C0 29.7623 2.65273 32.42 5.92504 32.42Z" fill="#57C9E8"></path><path _ngcontent-c0="" d="M20.9656 47.9449C24.2379 47.9449 26.8906 45.2872 26.8906 42.0088C26.8906 38.7304 24.2379 36.0728 20.9656 36.0728C17.6933 36.0728 15.0405 38.7304 15.0405 42.0088C15.0405 45.2872 17.6933 47.9449 20.9656 47.9449Z" fill="#141515"></path><path _ngcontent-c0="" d="M20.9656 32.42C24.2379 32.42 26.8906 29.7623 26.8906 26.4839C26.8906 23.2055 24.2379 20.5479 20.9656 20.5479C17.6933 20.5479 15.0405 23.2055 15.0405 26.4839C15.0405 29.7623 17.6933 32.42 20.9656 32.42Z" fill="#141515"></path><path _ngcontent-c0="" d="M20.9656 16.8956C24.2379 16.8956 26.8906 14.2379 26.8906 10.9595C26.8906 7.68111 24.2379 5.02344 20.9656 5.02344C17.6933 5.02344 15.0405 7.68111 15.0405 10.9595C15.0405 14.2379 17.6933 16.8956 20.9656 16.8956Z" fill="#57C9E8"></path><path _ngcontent-c0="" d="M36.2336 32.42C39.5059 32.42 42.1587 29.7623 42.1587 26.4839C42.1587 23.2055 39.5059 20.5479 36.2336 20.5479C32.9613 20.5479 30.3086 23.2055 30.3086 26.4839C30.3086 29.7623 32.9613 32.42 36.2336 32.42Z" fill="#141515"></path><path _ngcontent-c0="" d="M36.2336 16.8956C39.5059 16.8956 42.1587 14.2379 42.1587 10.9595C42.1587 7.68111 39.5059 5.02344 36.2336 5.02344C32.9613 5.02344 30.3086 7.68111 30.3086 10.9595C30.3086 14.2379 32.9613 16.8956 36.2336 16.8956Z" fill="#141515"></path><path _ngcontent-c0="" d="M56.5151 5.93542H65.8585V8.44684H59.2498V24.2003H56.5151C56.5151 24.2003 56.5151 5.93542 56.5151 5.93542ZM280.755 5.93542H285.769V24.2003H283.034V8.90346H280.755V5.93542ZM67.9094 31.0496V5.93542H70.4162V8.21852C71.0998 7.30528 71.5556 6.62035 72.4672 6.16373C73.1508 5.70711 74.0624 5.4788 75.2018 5.4788C76.5691 5.4788 77.7085 5.93542 78.848 6.62035C79.9874 7.53359 80.6711 8.44684 81.1268 10.045C81.5826 11.4149 82.0384 13.013 82.0384 14.8395C82.0384 16.666 81.8105 18.4925 81.1268 19.8624C80.4432 21.4605 79.7595 22.6021 78.6201 23.287C77.4807 23.9719 76.3412 24.4286 74.9739 24.4286C74.0624 24.4286 73.1508 24.2003 72.4672 23.7436C71.7835 23.287 71.0998 22.8304 70.6441 22.1455V31.0496C70.6441 31.0496 67.9094 31.0496 67.9094 31.0496ZM70.1883 15.0678C70.1883 17.3509 70.6441 19.1774 71.3277 20.319C72.2393 21.4605 73.1508 21.9172 74.2902 21.9172C75.4297 21.9172 76.5691 21.2322 77.4807 20.0907C78.3922 18.9491 78.848 17.1226 78.848 14.6112C78.848 12.3281 78.3922 10.5016 77.4807 9.36008C76.5691 8.21852 75.6576 7.53359 74.5181 7.53359C73.3787 7.53359 72.2393 8.21852 71.3277 9.36008C70.6441 10.9583 70.1883 12.7847 70.1883 15.0678ZM84.0894 15.0678C84.0894 11.6432 85.0009 9.13177 86.5961 7.53359C87.9634 6.16373 89.5586 5.4788 91.6096 5.4788C93.8885 5.4788 95.7115 6.39204 97.0789 7.99021C98.4462 9.58839 99.1298 11.8715 99.1298 14.8395C99.1298 17.1226 98.9019 18.9491 98.2183 20.319C97.5346 21.6888 96.6231 22.8304 95.4837 23.5153C94.3442 24.2003 92.9769 24.6569 91.6096 24.6569C89.3307 24.6569 87.5076 23.7436 86.1403 22.1455C84.773 20.5473 84.0894 18.0359 84.0894 15.0678ZM86.824 15.0678C86.824 17.3509 87.2798 19.1774 88.1913 20.319C89.1028 21.4605 90.2423 22.1455 91.6096 22.1455C92.9769 22.1455 94.1163 21.4605 95.0279 20.319C95.9394 19.1774 96.3952 17.3509 96.3952 15.0678C96.3952 12.7847 95.9394 11.1866 95.0279 9.8167C94.1163 8.67515 92.9769 7.99021 91.6096 7.99021C90.2423 7.99021 89.1028 8.67515 88.1913 9.8167C87.2798 10.9583 86.824 12.5564 86.824 15.0678ZM102.32 5.93542H106.65L110.98 20.5473L115.766 5.93542H119.64V24.2003H116.905V9.36008L111.891 24.2003H109.613L105.055 8.67515V24.2003H102.32V5.93542ZM134.224 21.9172C133.313 22.8304 132.173 23.5153 131.262 23.9719C130.35 24.4286 129.211 24.6569 128.299 24.6569C126.476 24.6569 125.109 24.2003 124.197 23.287C123.286 22.3738 122.83 21.0039 122.83 19.6341C122.83 18.7208 123.058 17.8076 123.286 17.1226C123.742 16.4377 124.197 15.7528 124.653 15.2962C125.337 14.8395 125.793 14.6112 126.704 14.3829C127.16 14.1546 128.071 14.1546 129.211 13.9263C131.49 13.698 133.085 13.2414 133.996 12.7847C133.996 12.3281 133.996 12.0998 133.996 11.8715C133.996 10.5016 133.769 9.8167 133.313 9.13177C132.629 8.44684 131.49 7.99021 130.122 7.99021C128.755 7.99021 127.843 8.21852 127.388 8.67515C126.704 9.13177 126.248 10.045 126.02 11.4149L123.286 11.1866C123.514 9.8167 123.969 8.90346 124.425 7.99021C124.881 7.30528 125.793 6.62035 126.932 6.16373C128.071 5.70711 129.211 5.4788 130.578 5.4788C131.945 5.4788 133.085 5.70711 133.996 5.93542C134.908 6.39204 135.592 6.84866 135.819 7.30528C136.275 7.7619 136.503 8.67515 136.731 9.36008C136.731 9.8167 136.959 10.7299 136.959 12.0998V16.2094C136.959 19.1774 136.959 21.0039 137.187 21.6888C137.187 22.3738 137.643 23.287 137.87 23.9719H134.68C134.452 23.5153 134.224 22.8304 134.224 21.9172ZM133.996 15.0678C133.085 15.5245 131.49 15.9811 129.439 16.2094C128.299 16.4377 127.616 16.666 127.16 16.8943C126.704 17.1226 126.248 17.3509 126.02 17.8076C125.793 18.2642 125.565 18.7208 125.565 19.1774C125.565 20.0907 125.793 20.7756 126.476 21.2322C126.932 21.6888 127.843 22.1455 128.983 22.1455C130.122 22.1455 131.034 21.9172 131.718 21.4605C132.629 21.0039 133.085 20.319 133.541 19.4057C133.769 18.7208 133.996 17.5793 133.996 16.2094V15.0678ZM143.112 5.93542H154.278V21.6888H156.101V29.4514H153.822V24.2003H141.061V29.4514H138.782V21.6888H140.149C142.2 18.7208 143.112 13.4697 143.112 5.93542ZM145.391 8.44684C145.163 14.3829 144.479 18.7208 142.884 21.6888H151.544V8.44684H145.391ZM169.547 17.3509L172.281 17.8076C172.053 19.8624 171.142 21.4605 170.002 22.8304C168.863 23.9719 167.268 24.6569 165.445 24.6569C163.166 24.6569 161.571 23.7436 160.203 22.1455C158.836 20.5473 158.152 18.2642 158.152 15.0678C158.152 13.013 158.38 11.4149 159.064 9.8167C159.748 8.44684 160.431 7.30528 161.799 6.39204C162.938 5.70711 164.305 5.25049 165.673 5.25049C167.496 5.25049 168.863 5.70711 170.002 6.84866C171.142 7.7619 171.825 9.36008 172.053 11.1866L169.319 11.6432C169.091 10.5016 168.635 9.58839 167.951 8.90346C167.268 8.21853 166.584 7.99021 165.673 7.99021C164.305 7.99021 163.166 8.44684 162.254 9.58839C161.343 10.7299 160.887 12.5564 160.887 14.8395C160.887 17.3509 161.343 19.1774 162.026 20.0907C162.938 21.2322 163.849 21.6888 165.217 21.6888C166.356 21.6888 167.268 21.2322 167.951 20.5473C168.863 20.0907 169.319 18.9491 169.547 17.3509ZM174.56 5.93542H177.295V13.013H180.713C182.992 13.013 184.587 13.4697 185.954 14.6112C187.094 15.5245 187.778 16.8943 187.778 18.7208C187.778 20.319 187.322 21.4605 186.182 22.6021C185.271 23.7436 183.448 24.2003 181.397 24.2003H174.56V5.93542ZM177.295 21.6888H180.257C182.08 21.6888 183.22 21.4605 183.903 21.0039C184.587 20.5473 185.043 19.8624 185.043 18.7208C185.043 18.0359 184.815 17.1226 184.131 16.666C183.676 15.9811 182.308 15.7528 180.485 15.7528H177.295V21.6888ZM190.74 5.93542H193.475V13.9263C194.386 13.9263 194.842 13.698 195.298 13.4697C195.754 13.013 196.209 12.0998 196.893 10.2733C197.349 8.90346 197.805 7.7619 198.26 7.30528C198.488 6.84866 198.944 6.62035 199.4 6.39204C199.855 6.16373 200.539 6.16373 201.451 6.16373H201.906V8.67515H201.223C200.539 8.67515 200.083 8.90346 199.855 9.13177C199.628 9.36008 199.4 10.045 198.944 11.4149C198.488 12.5564 198.26 13.4697 197.805 13.9263C197.349 14.3829 196.893 14.8395 196.209 15.2962C197.349 15.7528 198.488 16.8943 199.628 18.9491L202.59 24.6569H199.628L196.665 18.9491C195.981 17.8076 195.526 17.1226 195.07 16.666C194.614 16.2094 194.158 16.2094 193.475 16.2094V24.6569H190.74V5.93542ZM215.58 18.2642L218.314 18.7208C217.858 20.5473 216.947 22.1455 215.807 23.0587C214.668 24.2003 213.073 24.6569 211.25 24.6569C208.971 24.6569 206.92 23.7436 205.553 22.1455C204.185 20.5473 203.502 18.2642 203.502 15.2962C203.502 12.0998 204.185 9.8167 205.553 8.21852C206.92 6.62035 208.743 5.70711 211.022 5.70711C213.073 5.70711 214.896 6.62035 216.263 8.21852C217.631 9.8167 218.314 12.3281 218.314 15.2962C218.314 15.5245 218.314 15.7528 218.314 16.2094H206.236C206.236 18.2642 206.92 19.8624 207.831 20.7756C208.743 21.9172 209.882 22.3738 211.25 22.3738C212.161 22.3738 213.073 22.1455 213.757 21.4605C214.668 20.5473 215.124 19.6341 215.58 18.2642ZM206.692 13.2414H215.58C215.352 11.6432 215.124 10.5016 214.44 9.8167C213.529 8.67515 212.389 7.99021 211.022 7.99021C209.882 7.99021 208.743 8.44684 207.831 9.36008C207.148 10.2733 206.692 11.6432 206.692 13.2414ZM230.392 31.0496V5.93542H232.899V8.21852C233.583 7.30528 234.038 6.62035 234.95 6.16373C235.634 5.70711 236.545 5.4788 237.685 5.4788C239.052 5.4788 240.191 5.93542 241.331 6.62035C242.47 7.53359 243.154 8.44684 243.61 10.045C244.065 11.4149 244.521 13.013 244.521 14.8395C244.521 16.666 244.293 18.4925 243.61 19.8624C242.926 21.4605 242.242 22.6021 241.103 23.287C239.963 23.9719 238.824 24.4286 237.457 24.4286C236.545 24.4286 235.634 24.2003 234.95 23.7436C234.266 23.287 233.583 22.8304 233.127 22.1455V31.0496C233.127 31.0496 230.392 31.0496 230.392 31.0496ZM232.899 15.0678C232.899 17.3509 233.355 19.1774 234.266 20.319C235.178 21.4605 236.089 21.9172 237.229 21.9172C238.368 21.9172 239.508 21.2322 240.419 20.0907C241.331 18.9491 241.787 17.1226 241.787 14.6112C241.787 12.3281 241.331 10.5016 240.419 9.36008C239.508 8.21852 238.596 7.53359 237.457 7.53359C236.317 7.53359 235.178 8.21852 234.266 9.36008C233.355 10.9583 232.899 12.7847 232.899 15.0678ZM258.194 21.9172C257.283 22.8304 256.143 23.5153 255.232 23.9719C254.32 24.4286 253.409 24.6569 252.269 24.6569C250.446 24.6569 249.079 24.2003 248.167 23.287C247.256 22.3738 246.8 21.0039 246.8 19.6341C246.8 18.7208 247.028 17.8076 247.256 17.1226C247.712 16.4377 248.167 15.7528 248.623 15.2962C249.307 14.8395 249.763 14.6112 250.674 14.3829C251.13 14.1546 252.041 14.1546 253.181 13.9263C255.46 13.698 257.055 13.2414 257.966 12.7847C257.966 12.3281 257.966 12.0998 257.966 11.8715C257.966 10.5016 257.739 9.8167 257.283 9.13177C256.599 8.44684 255.46 7.99021 254.092 7.99021C252.725 7.99021 251.814 8.21852 251.358 8.67515C250.674 9.13177 250.218 10.045 249.99 11.4149L247.256 10.9583C247.484 9.58839 247.939 8.67515 248.395 7.7619C248.851 7.07697 249.763 6.39204 250.902 5.93542C252.041 5.4788 253.181 5.25049 254.548 5.25049C255.915 5.25049 257.055 5.4788 257.966 5.70711C258.878 6.16373 259.562 6.62035 259.79 7.07697C260.245 7.53359 260.473 8.44684 260.701 9.13177C260.701 9.58839 260.929 10.5016 260.929 11.8715V15.9811C260.929 18.9491 260.929 20.7756 261.157 21.4605C261.385 22.1455 261.613 23.0587 261.841 23.7436H259.106C258.422 23.5153 258.194 22.8304 258.194 21.9172ZM257.966 15.0678C257.055 15.5245 255.46 15.9811 253.409 16.2094C252.269 16.4377 251.586 16.666 251.13 16.8943C250.674 17.1226 250.218 17.3509 249.99 17.8076C249.763 18.2642 249.535 18.7208 249.535 19.1774C249.535 20.0907 249.763 20.7756 250.446 21.2322C250.902 21.6888 251.814 22.1455 252.953 22.1455C254.092 22.1455 255.004 21.9172 255.688 21.4605C256.599 21.0039 257.055 20.319 257.511 19.4057C257.739 18.7208 257.966 17.5793 257.966 16.2094V15.0678ZM267.082 5.93542H278.248V21.6888H280.071V29.4514H277.793V24.2003H265.031V29.4514H262.752V21.6888H264.119C266.17 18.7208 267.082 13.4697 267.082 5.93542ZM269.361 8.44684C269.133 14.3829 268.449 18.7208 266.854 21.6888H275.514V8.44684H269.361ZM288.959 15.0678C288.959 11.6432 289.87 9.13177 291.466 7.53359C292.833 6.16373 294.428 5.4788 296.479 5.4788C298.758 5.4788 300.581 6.39204 301.948 7.99021C303.316 9.58839 303.999 11.8715 303.999 14.8395C303.999 17.1226 303.772 18.9491 303.088 20.319C302.404 21.6888 301.493 22.8304 300.353 23.5153C299.214 24.2003 297.847 24.6569 296.479 24.6569C294.2 24.6569 292.377 23.7436 291.01 22.1455C289.643 20.5473 288.959 18.0359 288.959 15.0678ZM291.694 15.0678C291.694 17.3509 292.149 19.1774 293.061 20.319C293.972 21.4605 295.112 22.1455 296.479 22.1455C297.847 22.1455 298.986 21.4605 299.897 20.319C300.809 19.1774 301.265 17.3509 301.265 15.0678C301.265 12.7847 300.809 11.1866 299.897 9.8167C298.986 8.67515 297.847 7.99021 296.479 7.99021C295.112 7.99021 293.972 8.67515 293.061 9.8167C292.149 10.9583 291.694 12.5564 291.694 15.0678Z" fill="#141515"></path><path _ngcontent-c0="" d="M74.0625 38.5845L76.1135 45.2055L78.1644 38.5845H79.9875C79.076 41.3242 77.4808 45.4338 76.3413 48.1735C75.6577 49.5434 75.4298 50 73.8346 50C73.6067 50 73.3788 50 73.1509 49.7717V48.6301C73.3788 48.6301 73.6067 48.8584 74.0625 48.8584C74.7461 48.8584 74.7461 48.6301 75.4298 47.032L72.4673 38.8128H74.0625V38.5845Z" fill="#141515"></path><path _ngcontent-c0="" d="M139.694 38.5845L141.745 45.2055L143.796 38.5845H145.391C144.48 41.3242 142.885 45.4338 141.745 48.1735C141.062 49.5434 140.834 50 139.238 50C139.011 50 138.783 50 138.555 49.7717V48.6301C138.783 48.6301 139.011 48.8584 139.466 48.8584C140.15 48.8584 140.15 48.6301 140.834 47.032L137.871 38.8128H139.694V38.5845Z" fill="#141515"></path><path _ngcontent-c0="" d="M61.9844 41.3248C61.7565 40.1832 61.3007 39.4983 60.1613 39.4983C58.5661 39.4983 57.8825 41.0965 57.8825 42.4663C57.8825 43.8362 58.1103 45.6627 60.1613 45.6627C61.0729 45.6627 61.7565 44.9777 61.9844 43.8362H63.3517C63.1238 45.206 62.4402 46.8042 60.1613 46.8042C57.8825 46.8042 56.5151 45.206 56.5151 42.6946C56.5151 40.1832 57.6546 38.1284 60.3892 38.1284C62.4402 38.1284 63.3517 39.7266 63.3517 41.0965L61.9844 41.3248Z" fill="#141515"></path><path _ngcontent-c0="" d="M71.3283 38.5843V46.5751H69.961V39.7258H66.7706V43.3788C66.7706 45.8902 65.8591 46.8034 64.7196 46.8034C64.2639 46.8034 64.036 46.8034 63.8081 46.5751V45.4336C63.8081 45.4336 64.036 45.4336 64.2639 45.4336C64.9475 45.4336 65.4033 45.2053 65.4033 42.6939V38.356L71.3283 38.5843C71.3283 38.5843 71.3283 38.356 71.3283 38.5843Z" fill="#141515"></path><path _ngcontent-c0="" d="M87.9636 46.5753H86.1405L84.0895 43.6073L82.2664 46.5753H80.4434L83.4059 42.4658L80.6713 38.5845H82.4943L84.3174 41.3242L86.1405 38.5845H87.7357L85.0011 42.4658L87.9636 46.5753Z" fill="#141515"></path><path _ngcontent-c0="" d="M88.8753 40.8681C88.8753 39.0417 90.2427 38.1284 92.2936 38.1284C92.9773 38.1284 95.2562 38.3567 95.2562 40.4115V44.9777C95.2562 45.206 95.484 45.4344 95.7119 45.4344C95.9398 45.4344 95.9398 45.4344 96.1677 45.4344V46.5759C95.9398 46.5759 95.7119 46.8042 95.484 46.8042C94.3446 46.8042 94.1167 46.1193 94.1167 45.6627C93.6609 46.1193 92.7494 47.0325 91.1542 47.0325C89.7869 47.0325 88.6475 46.1193 88.6475 44.7494C88.6475 43.8362 88.8753 42.4663 91.8379 42.238C93.8888 42.0097 94.1167 42.0097 94.1167 41.0965C94.1167 40.1832 93.4331 39.7266 92.2936 39.7266C90.6984 39.7266 90.4705 40.6398 90.4705 41.3248H88.8753C88.8753 41.3248 88.8753 40.8681 88.8753 40.8681ZM93.8888 42.4663C93.661 42.6946 93.4331 42.6946 91.61 42.9229C90.9263 42.9229 89.7869 43.1512 89.7869 44.2928C89.7869 45.206 90.2427 45.6627 91.1542 45.6627C92.5215 45.6627 93.6609 44.7494 93.6609 43.8362V42.4663H93.8888Z" fill="#141515"></path><path _ngcontent-c0="" d="M98.902 44.5208L102.776 38.5847H104.143V46.5756H102.776V40.6395L98.902 46.5756H97.5347V38.5847H98.902V44.5208ZM100.953 36.7583C102.092 36.7583 102.32 36.0733 102.548 35.6167H103.232C103.232 36.0733 103.004 37.6715 100.953 37.6715C98.902 37.6715 98.6741 36.0733 98.6741 35.6167H99.3578C99.5856 36.3016 100.041 36.7583 100.953 36.7583Z" fill="#141515"></path><path _ngcontent-c0="" d="M112.12 38.5845V39.726H109.386V46.5753H108.018V39.726H105.284V38.5845H112.12Z" fill="#141515"></path><path _ngcontent-c0="" d="M120.096 44.0645C119.868 45.206 118.957 46.8042 116.45 46.8042C114.171 46.8042 112.804 45.206 112.804 42.6946C112.804 40.1832 113.943 38.1284 116.678 38.1284C118.957 38.1284 120.096 39.9549 120.096 42.9229H114.171C114.171 44.5211 114.855 45.6627 116.45 45.6627C117.817 45.6627 118.501 44.7494 118.501 44.0645H120.096ZM118.729 42.0097C118.729 40.8681 118.045 39.4983 116.45 39.4983C115.31 39.4983 114.171 40.6398 114.171 42.0097H118.729Z" fill="#141515"></path><path _ngcontent-c0="" d="M136.731 38.5843V45.4336H137.643V48.8582H136.503V46.5751H130.578V48.8582H129.439V45.4336H130.123C130.806 44.0637 131.034 42.6939 131.034 41.0957V38.356L136.731 38.5843ZM135.364 39.7258H132.401V41.0957C132.401 42.9222 132.174 44.0637 131.49 45.4336H135.364C135.364 45.4336 135.364 39.7258 135.364 39.7258Z" fill="#141515"></path><path _ngcontent-c0="" d="M148.581 38.5845L151.088 44.9772L153.595 38.5845H155.418V46.5753H154.051V42.0091C154.051 41.0959 154.051 40.1826 154.051 40.1826L151.544 46.5753H150.632L148.126 40.1826C148.126 40.1826 148.126 41.0959 148.126 42.0091V46.5753H146.758V38.5845H148.581V38.5845Z" fill="#141515"></path><path _ngcontent-c0="" d="M157.241 40.8681C157.241 39.0417 158.608 38.1284 160.659 38.1284C161.343 38.1284 163.622 38.3567 163.622 40.4115V44.9777C163.622 45.206 163.85 45.4344 164.078 45.4344C164.306 45.4344 164.306 45.4344 164.533 45.4344V46.5759C164.306 46.5759 164.078 46.8042 163.85 46.8042C162.71 46.8042 162.482 46.1193 162.482 45.6627C162.027 46.1193 161.115 47.0325 159.52 47.0325C158.153 47.0325 157.013 46.1193 157.013 44.7494C157.013 43.8362 157.241 42.4663 160.204 42.238C162.255 42.0097 162.482 42.0097 162.482 41.0965C162.482 40.1832 161.799 39.7266 160.659 39.7266C159.064 39.7266 158.836 40.6398 158.836 41.3248H157.241C157.241 41.3248 157.241 40.8681 157.241 40.8681ZM162.255 42.4663C162.027 42.6946 161.799 42.6946 159.976 42.9229C159.292 42.9229 158.153 43.1512 158.153 44.2928C158.153 45.206 158.608 45.6627 159.52 45.6627C160.887 45.6627 162.027 44.7494 162.027 43.8362V42.4663H162.255Z" fill="#141515"></path><path _ngcontent-c0="" d="M167.268 44.5208L171.142 38.5847H172.509V46.5756H171.142V40.6395L167.268 46.5756H165.9V38.5847H167.268V44.5208ZM169.319 36.7583C170.458 36.7583 170.686 36.0733 170.914 35.6167H171.598C171.598 36.0733 171.37 37.6715 169.319 37.6715C167.268 37.6715 167.04 36.0733 167.04 35.6167H167.723C167.951 36.3016 168.407 36.7583 169.319 36.7583Z" fill="#141515"></path><path _ngcontent-c0="" d="M180.258 38.5845V39.726H177.751V46.5753H176.384V39.726H173.649V38.5845H180.258Z" fill="#141515"></path><path _ngcontent-c0="" d="M188.234 44.0645C188.006 45.206 187.094 46.8042 184.588 46.8042C182.309 46.8042 180.941 45.206 180.941 42.6946C180.941 40.1832 182.081 38.1284 184.815 38.1284C187.094 38.1284 188.234 39.9549 188.234 42.9229H182.537C182.537 44.5211 183.22 45.6627 184.815 45.6627C186.183 45.6627 186.866 44.7494 186.866 44.0645H188.234ZM187.094 42.0097C187.094 40.8681 186.411 39.4983 184.815 39.4983C183.676 39.4983 182.537 40.6398 182.537 42.0097H187.094Z" fill="#141515"></path><path _ngcontent-c0="" d="M122.602 46.5751C123.232 46.5751 123.742 46.064 123.742 45.4335C123.742 44.8031 123.232 44.292 122.602 44.292C121.973 44.292 121.463 44.8031 121.463 45.4335C121.463 46.064 121.973 46.5751 122.602 46.5751Z" fill="#141515"></path><path _ngcontent-c0="" d="M191.196 46.5751C191.825 46.5751 192.336 46.064 192.336 45.4335C192.336 44.8031 191.825 44.292 191.196 44.292C190.567 44.292 190.057 44.8031 190.057 45.4335C190.057 46.064 190.567 46.5751 191.196 46.5751Z" fill="#141515"></path><path _ngcontent-c0="" d="M284.402 3.65297C285.409 3.65297 286.225 2.83522 286.225 1.82648C286.225 0.817745 285.409 0 284.402 0C283.395 0 282.579 0.817745 282.579 1.82648C282.579 2.83522 283.395 3.65297 284.402 3.65297Z" fill="#141515"></path></svg>